HIERARCHY
ROOT root
{
	OFFSET 0.000000 0.000000 0.000000
	CHANNELS 6 Xposition Yposition Zposition Zrotation Yrotation Xrotation
	JOINT lhip
	{
		OFFSET 0.058581 -0.082280 -0.017664
		CHANNELS 3 Zrotation Yrotation Xrotation
		JOINT lknee
		{
			OFFSET 0.043451 -0.386469 0.008037
			CHANNELS 3 Zrotation Yrotation Xrotation
			JOINT lankle
			{
				OFFSET -0.014790 -0.426874 -0.037428
				CHANNELS 3 Zrotation Yrotation Xrotation
				JOINT ltoe
				{
					OFFSET 0.041054 -0.060286 0.122042
					CHANNELS 3 Zrotation Yrotation Xrotation
					End Site
					{
						OFFSET 0.000000 0.000000 0.000000
					}
				}
			}
		}
	}
	JOINT rhip
	{
		OFFSET -0.060310 -0.090513 -0.013543
		CHANNELS 3 Zrotation Yrotation Xrotation
		JOINT rknee
		{
			OFFSET -0.043257 -0.383688 -0.004843
			CHANNELS 3 Zrotation Yrotation Xrotation
			JOINT rankle
			{
				OFFSET 0.019056 -0.420046 -0.034562
				CHANNELS 3 Zrotation Yrotation Xrotation
				JOINT rtoe
				{
					OFFSET -0.034840 -0.062106 0.130323
					CHANNELS 3 Zrotation Yrotation Xrotation
					End Site
					{
						OFFSET 0.000000 0.000000 0.000000
					}
				}
			}
		}
	}
	JOINT lowerback
	{
		OFFSET 0.004439 0.124404 -0.038385
		CHANNELS 3 Zrotation Yrotation Xrotation
		JOINT upperback
		{
			OFFSET 0.004488 0.137956 0.026820
			CHANNELS 3 Zrotation Yrotation Xrotation
			JOINT chest
			{
				OFFSET -0.002265 0.056032 0.002855
				CHANNELS 3 Zrotation Yrotation Xrotation
				JOINT lowerneck
				{
					OFFSET -0.013390 0.211636 -0.033468
					CHANNELS 3 Zrotation Yrotation Xrotation
					JOINT upperneck
					{
						OFFSET 0.010113 0.088937 0.050410
						CHANNELS 3 Zrotation Yrotation Xrotation
						End Site
						{
							OFFSET 0.000000 0.000000 0.000000
						}
					}
				}
				JOINT lclavicle
				{
					OFFSET 0.071702 0.114000 -0.018898
					CHANNELS 3 Zrotation Yrotation Xrotation
					JOINT lshoulder
					{
						OFFSET 0.122921 0.045205 -0.019046
						CHANNELS 3 Zrotation Yrotation Xrotation
						JOINT lelbow
						{
							OFFSET 0.255332 -0.015649 -0.022946
							CHANNELS 3 Zrotation Yrotation Xrotation
							JOINT lwrist
							{
								OFFSET 0.265709 0.012698 -0.007375
								CHANNELS 3 Zrotation Yrotation Xrotation
								End Site
								{
									OFFSET 0.000000 0.000000 0.000000
								}
							}
						}
					}
				}
				JOINT rclavicle
				{
					OFFSET -0.082954 0.112472 -0.023707
					CHANNELS 3 Zrotation Yrotation Xrotation
					JOINT rshoulder
					{
						OFFSET -0.113228 0.046853 -0.008472
						CHANNELS 3 Zrotation Yrotation Xrotation
						JOINT relbow
						{
							OFFSET -0.260127 -0.014369 -0.031269
							CHANNELS 3 Zrotation Yrotation Xrotation
							JOINT rwrist
							{
								OFFSET -0.269108 0.006794 -0.006027
								CHANNELS 3 Zrotation Yrotation Xrotation
								End Site
								{
									OFFSET 0.000000 0.000000 0.000000
								}
							}
						}
					}
				}
			}
		}
	}
}
MOTION
Frames: 8
Frame Time: 0.033333
-0.031059 -0.426121 1.006753 -63.117378 -2.779061 83.861248 -3.880142 -5.561094 5.738763 -2.729105 -21.556619 6.194381 -0.217046 0.057276 -8.730889 0.000000 -0.000000 0.000000 0.051039 -7.942038 6.190201 0.975399 -12.064548 12.029742 1.659013 -12.121499 -14.723754 0.000000 -0.000000 0.000000 4.012760 6.745944 11.665811 -1.592912 2.774256 1.153111 -0.846972 2.019135 0.787987 1.347501 15.381540 6.010472 -1.819679 11.033307 13.006938 -27.376937 0.555390 1.904416 -58.065861 -1.092499 9.203172 9.597477 -22.426997 5.147193 -0.808792 -4.107314 -8.729957 25.692063 6.847245 3.940629 57.150391 12.342178 12.833976 -24.451156 35.111492 -12.688766 0.911126 6.883989 -11.527701 
-0.032432 -0.423878 1.006612 -63.888818 -2.868367 83.489517 -3.964873 -5.232335 6.070968 -2.621789 -21.483162 6.611255 -0.121663 0.402949 -9.242054 0.000000 -0.000000 0.000000 0.104066 -7.797179 6.633545 0.915550 -11.375806 11.947758 1.029138 -11.838484 -15.110147 0.000000 -0.000000 0.000000 3.656497 6.480173 11.923950 -1.417529 2.303530 0.992609 -0.935000 1.844304 0.984874 1.688091 10.949347 7.021580 -1.397030 6.792225 14.669876 -27.457421 0.671642 2.221422 -57.941926 -1.729661 9.715584 8.498847 -23.534792 4.020198 2.815649 -3.900113 -10.696760 25.409478 7.001512 3.893071 57.883679 12.024898 13.264099 -24.956733 36.849664 -12.750729 0.250123 7.221393 -10.697210 
-0.033981 -0.421154 1.005631 -64.833810 -2.795875 83.497761 -3.798263 -5.250108 5.519962 -2.941388 -20.951179 8.017497 0.385297 0.729579 -10.175522 0.000000 -0.000000 0.000000 0.364820 -7.389204 6.646760 1.004690 -11.056125 12.189034 1.348604 -11.726873 -15.345977 0.000000 -0.000000 0.000000 3.529085 6.216709 11.835814 -1.186866 1.887962 0.901686 -1.189092 1.645972 0.964174 1.785578 7.469014 8.361264 -1.270247 2.606310 16.523398 -27.515007 0.674709 2.950741 -58.272042 -2.641481 9.675388 8.958117 -23.965212 3.879604 2.193575 -4.303282 -10.862223 25.220005 6.667817 3.821577 58.727812 11.573685 13.408126 -24.930457 38.286668 -11.369867 0.794734 7.405577 -10.442480 
-0.036861 -0.417305 1.004847 -66.260848 -2.546240 82.966058 -3.750458 -5.222087 4.867854 -3.261914 -20.277142 11.091765 0.660446 1.344937 -11.543683 0.000000 -0.000000 0.000000 0.832674 -7.040156 7.383794 1.083485 -10.229702 12.218135 1.131907 -11.586620 -15.640062 0.000000 -0.000000 0.000000 3.512810 5.728872 12.433537 -0.852077 1.306738 1.039757 -1.476180 1.458584 1.154057 1.891816 2.798982 9.009440 -1.648640 -2.187986 18.311851 -27.681457 0.704900 3.505960 -58.222084 -3.353506 9.466289 9.726962 -25.126917 4.764716 -0.721303 -4.753400 -9.493396 25.207843 6.906657 3.638584 58.916742 10.477369 13.509359 -23.804892 39.212121 -9.169696 1.894927 7.625424 -10.108804 
-0.038814 -0.414500 1.003654 -67.517073 -2.419826 82.746533 -3.747108 -5.298864 4.087972 -3.751374 -19.409031 13.686063 0.850449 2.264862 -12.551645 0.000000 -0.000000 0.000000 1.073467 -6.859168 7.655719 1.105006 -9.722787 12.416438 1.093906 -11.074240 -15.940580 0.000000 -0.000000 0.000000 3.488510 5.541409 12.650884 -0.761821 1.048491 1.230037 -1.502953 1.090622 1.793198 1.945023 1.129204 9.068654 -2.172728 -3.389139 18.537345 -27.731024 1.076910 3.016286 -58.125813 -4.087814 9.648099 9.650534 -25.582372 4.319737 0.347929 -5.969505 -9.566447 24.946808 6.760412 2.973222 58.922521 10.444815 14.067249 -21.782787 38.768991 -7.004162 1.861410 7.868112 -9.158853 
-0.041296 -0.411044 1.001961 -69.176013 -2.146104 82.362434 -3.598574 -5.219015 2.529106 -4.511208 -17.729114 18.162136 1.143676 3.055920 -13.813626 0.000000 -0.000000 0.000000 1.416020 -6.815862 8.091575 1.161109 -8.826748 12.793730 0.596625 -10.734799 -16.138302 0.000000 -0.000000 0.000000 3.546300 5.376107 13.315536 -0.500868 0.658306 1.247692 -1.519258 0.993817 1.886211 1.514924 -1.310616 9.779814 -1.792794 -5.455548 19.015336 -27.715563 0.879692 3.409750 -58.205851 -4.348640 9.828401 9.794054 -27.512633 4.057377 2.108647 -4.843340 -9.589345 25.080735 6.788950 3.123309 58.455186 9.792321 13.744214 -19.867305 37.821474 -4.974492 1.921218 7.573056 -8.026675 
-0.044973 -0.408159 1.000126 -70.699005 -1.807791 81.946053 -3.345704 -5.292297 0.392889 -5.500003 -14.955234 23.583736 1.271225 3.430439 -13.729510 0.000000 -0.000000 0.000000 1.686572 -6.602870 8.856258 1.578379 -8.155995 12.648158 0.566790 -10.634475 -16.186431 0.000000 -0.000000 0.000000 3.645044 5.174367 14.108259 -0.116119 0.177630 1.174083 -1.470705 0.786764 2.124941 1.306263 -1.906809 9.878462 -1.911679 -6.056298 19.224091 -27.652192 0.875950 3.696141 -58.149417 -4.912735 10.081232 9.571155 -29.165574 4.654247 -0.786281 -5.881173 -10.960504 24.990819 6.772269 3.031318 58.277677 9.324331 13.677382 -18.385536 35.295044 -3.917251 3.389451 7.664633 -7.991856 
-0.049009 -0.405090 0.999074 -72.120809 -1.375523 81.698384 -2.750093 -5.497636 -2.645638 -6.397077 -11.657067 29.881016 -0.005650 3.791583 -11.871281 0.000000 -0.000000 0.000000 2.318949 -6.697120 9.217083 1.433362 -7.454322 12.731178 -0.016634 -10.228432 -16.248500 0.000000 -0.000000 0.000000 3.682499 5.165186 14.739916 0.397620 -0.385757 1.117604 -1.264975 0.566829 2.064339 0.876987 -2.316380 10.490422 -1.565443 -6.215704 19.223317 -27.773664 0.402884 3.953731 -58.109571 -5.157217 10.462972 9.862044 -30.207230 4.565326 -0.262118 -5.444076 -11.237761 25.444031 6.832252 3.371193 57.289796 8.813591 12.981355 -16.588957 31.929240 -3.161332 3.566729 7.157530 -8.381180 
